<?xml version="1.0" encoding="iso-8859-1"?>
<!-- Generator: Adobe Illustrator 16.0.0, SVG Export Plug-In . SVG Version: 6.00 Build 0)  -->
<!DOCTYPE svg PUBLIC "-//W3C//DTD SVG 1.1//EN" "http://www.w3.org/Graphics/SVG/1.1/DTD/svg11.dtd">
<svg version="1.1" id="Capa_1" xmlns="http://www.w3.org/2000/svg" xmlns:xlink="http://www.w3.org/1999/xlink" x="0px" y="0px"
	 width="50px" height="50px" viewBox="0 0 378.131 378.131" style="enable-background:new 0 0 378.131 378.131;"
	 xml:space="preserve">
<g>
	<g>
		<path style="fill:#edf3ff;" d="M284.858,249.22c8.656-12.008,13.232-27.584,13.232-45.045v-53.447c0-7.979-6.594-14.471-14.699-14.471h-95.125
			c-8.104,0-14.697,6.492-14.697,14.471v53.447c0,17.461,4.575,33.037,13.231,45.045c8.439,11.708,20.406,19.451,34.808,22.585
			v73.701c0,0.578-0.049,0.99-0.105,1.275c-5.277,1.035-22.662,4.402-28.85,5.039c-10.089,1.041-15.205,5.408-15.205,12.982
			c0,8.096,6.19,13.328,15.77,13.328h85.223c9.58,0,15.771-5.232,15.771-13.328c0-7.574-5.115-11.941-15.207-12.982
			c-6.188-0.637-23.576-4.004-28.851-5.039c-0.056-0.334-0.104-0.809-0.104-1.453v-73.523
			C264.453,268.672,276.419,260.928,284.858,249.22z M246.472,357.266v0.002c0.959,0.189,23.602,4.693,31.404,5.496
			c4.541,0.467,5.219,1.301,5.242,1.332c0.025,0.043,0.094,0.264,0.094,0.707c0,0.576,0,2.33-4.771,2.33h-85.223
			c-4.771,0-4.771-1.754-4.771-2.33c0-0.443,0.068-0.664,0.09-0.703c0.026-0.035,0.704-0.869,5.242-1.336
			c7.805-0.803,30.448-5.307,31.409-5.496l0.392-0.094c0.72-0.199,7.028-2.217,7.028-11.666c0,0,0-60.797,0-81.062
			c0-2.375-4.719-2.68-4.719-2.68c-26.722-3.83-43.321-25.896-43.321-57.591v-53.447c0-1.882,1.693-3.471,3.697-3.471h95.126
			c2.004,0,3.697,1.589,3.697,3.471v53.447c0,31.694-16.6,53.761-43.32,57.591c0,0-4.721,0.18-4.721,2.68
			c0,20.221,0,80.883,0,80.883C239.05,355.107,245.004,356.957,246.472,357.266z"/>
		<path style="fill:#edf3ff;" d="M280.39,203.861c0-7.375-14.58,0.242-18.683,0.242c-25.78,0-52.589-35.744-62.981-35.744
			c-4.103,0-7.457,3.272-7.457,7.273v28.229c0,28.527,15.309,51.658,44.561,51.658S280.39,232.388,280.39,203.861z"/>
		<path style="fill:#edf3ff;" d="M233.052,44.903c3.564-2.013,6.18-5.307,7.174-9.036c0.885-3.317,0.438-6.716-1.256-9.571L227.056,6.224
			C224.743,2.327,220.456,0,215.588,0c-2.659,0-5.319,0.708-7.694,2.049c-19.459,10.99-51.752,27.43-59.26,27.814
			c-0.903,0.046-1.804,0.069-2.679,0.069c-9.26,0-15.358-2.583-21.256-5.081c-5.136-2.175-10.447-4.424-16.994-4.424
			c-6.083,0-12.349,1.889-19.687,5.94c-3.276,1.334-7.977,5.583-7.977,14.54v116.385c0,8.131,4.93,11.016,9.152,11.016l0,0
			c1.907,0,3.419-0.572,3.837-0.748l0.296-0.124l53.24-30.058c18.149-10.247,20.646-21.32,23.291-33.044
			c1.62-7.182,3.295-14.609,8.998-23.217C182.905,75.008,213.589,55.896,233.052,44.903z M169.685,75.044
			c-6.819,10.292-8.806,19.101-10.559,26.873c-2.45,10.862-4.068,18.037-17.968,25.885l-49.099,27.72c0,0-1.018,0.465-1.018-0.41
			c0-2.049,0-6.084,0-8.195c0-0.756,0.759-1.029,1.123-1.233c10.853-6.113,38.445-21.705,38.445-21.705
			c20.171-11.388,13.501-21.998,22.975-41.189c6.772-13.719,52.548-42.181,59.115-46.22c2.588-1.591-4.808-7.374-9.208-5.293
			c-12.135,5.737-44.125,22.145-60.832,25.488c-18.516,3.705-35.06,0.944-50.222,10.255c-0.467,0.287-1.396,0.051-1.396-1.699V40.91
			c0-2.721,0.729-3.992,1.182-4.352l0.233-0.067l0.549-0.307c5.796-3.243,10.467-4.753,14.7-4.753c4.313,0,8.016,1.568,12.704,3.553
			c6.261,2.652,14.052,5.952,25.546,5.952c1.061,0,2.151-0.028,3.241-0.084c13.441-0.688,62.046-28.056,64.107-29.221
			c0.727-0.41,1.518-0.627,2.285-0.627c0.934,0,1.703,0.321,2.01,0.838l11.912,20.072c0.178,0.298,0.207,0.676,0.088,1.122
			c-0.233,0.875-0.965,1.731-1.955,2.291C222.468,38.248,176.874,64.195,169.685,75.044z"/>
	</g>
</g>
<g>
</g>
<g>
</g>
<g>
</g>
<g>
</g>
<g>
</g>
<g>
</g>
<g>
</g>
<g>
</g>
<g>
</g>
<g>
</g>
<g>
</g>
<g>
</g>
<g>
</g>
<g>
</g>
<g>
</g>
</svg>
